<svg xmlns="http://www.w3.org/2000/svg" version="1.1" xmlns:xlink="http://www.w3.org/1999/xlink" xmlns:svgjs="http://svgjs.dev/svgjs" width="1440" height="560" preserveAspectRatio="none" viewBox="0 0 1440 560"><g mask="url(&quot;#SvgjsMask1015&quot;)" fill="none"><rect width="1440" height="560" x="0" y="0" fill="url(&quot;#SvgjsLinearGradient1016&quot;)"></rect><path d="M-53.19 344.79L-53.19 344.79" stroke="#132e65" stroke-width="1.5"></path><path d="M-53.19 344.79L56.48 389.47" stroke="#132e65" stroke-width="1.5"></path><path d="M-48.16 524.02L-48.16 524.02" stroke="#132e65" stroke-width="1.5"></path><path d="M-48.16 524.02L-110.8 640.65" stroke="#132e65" stroke-width="1.5"></path><path d="M-48.16 524.02L97.51 519.04" stroke="#132e65" stroke-width="1.5"></path><path d="M-110.8 640.65L-110.8 640.65" stroke="#132e65" stroke-width="1.5"></path><path d="M-110.8 640.65L65.63 673.7" stroke="#132e65" stroke-width="1.5"></path><path d="M56.48 389.47L56.48 389.47" stroke="#132e65" stroke-width="1.5"></path><path d="M56.48 389.47L97.51 519.04" stroke="#132e65" stroke-width="1.5"></path><path d="M56.48 389.47L215.3 397.74" stroke="#132e65" stroke-width="1.5"></path><path d="M56.48 389.47L-48.16 524.02" stroke="#132e65" stroke-width="1.5"></path><path d="M97.51 519.04L97.51 519.04" stroke="#132e65" stroke-width="1.5"></path><path d="M97.51 519.04L208.48 494.32" stroke="#132e65" stroke-width="1.5"></path><path d="M97.51 519.04L65.63 673.7" stroke="#132e65" stroke-width="1.5"></path><path d="M97.51 519.04L215.3 397.74" stroke="#132e65" stroke-width="1.5"></path><path d="M97.51 519.04L241.15 659.14" stroke="#132e65" stroke-width="1.5"></path><path d="M65.63 673.7L65.63 673.7" stroke="#132e65" stroke-width="1.5"></path><path d="M65.63 673.7L241.15 659.14" stroke="#132e65" stroke-width="1.5"></path><path d="M65.63 673.7L-48.16 524.02" stroke="#132e65" stroke-width="1.5"></path><path d="M65.63 673.7L208.48 494.32" stroke="#132e65" stroke-width="1.5"></path><path d="M65.63 673.7L56.48 389.47" stroke="#132e65" stroke-width="1.5"></path><path d="M215.3 397.74L215.3 397.74" stroke="#132e65" stroke-width="1.5"></path><path d="M215.3 397.74L208.48 494.32" stroke="#132e65" stroke-width="1.5"></path><path d="M215.3 397.74L352.22 352.09" stroke="#132e65" stroke-width="1.5"></path><path d="M208.48 494.32L208.48 494.32" stroke="#132e65" stroke-width="1.5"></path><path d="M208.48 494.32L241.15 659.14" stroke="#132e65" stroke-width="1.5"></path><path d="M208.48 494.32L378.07 560.8" stroke="#132e65" stroke-width="1.5"></path><path d="M208.48 494.32L56.48 389.47" stroke="#132e65" stroke-width="1.5"></path><path d="M241.15 659.14L241.15 659.14" stroke="#132e65" stroke-width="1.5"></path><path d="M241.15 659.14L366.15 646.75" stroke="#132e65" stroke-width="1.5"></path><path d="M241.15 659.14L378.07 560.8" stroke="#132e65" stroke-width="1.5"></path><path d="M352.22 352.09L352.22 352.09" stroke="#132e65" stroke-width="1.5"></path><path d="M352.22 352.09L531.28 404.45" stroke="#132e65" stroke-width="1.5"></path><path d="M352.22 352.09L208.48 494.32" stroke="#132e65" stroke-width="1.5"></path><path d="M378.07 560.8L378.07 560.8" stroke="#132e65" stroke-width="1.5"></path><path d="M378.07 560.8L366.15 646.75" stroke="#132e65" stroke-width="1.5"></path><path d="M378.07 560.8L516.84 556.46" stroke="#132e65" stroke-width="1.5"></path><path d="M378.07 560.8L554.99 643.34" stroke="#132e65" stroke-width="1.5"></path><path d="M378.07 560.8L352.22 352.09" stroke="#132e65" stroke-width="1.5"></path><path d="M366.15 646.75L366.15 646.75" stroke="#132e65" stroke-width="1.5"></path><path d="M366.15 646.75L516.84 556.46" stroke="#132e65" stroke-width="1.5"></path><path d="M366.15 646.75L554.99 643.34" stroke="#132e65" stroke-width="1.5"></path><path d="M366.15 646.75L208.48 494.32" stroke="#132e65" stroke-width="1.5"></path><path d="M366.15 646.75L215.3 397.74" stroke="#132e65" stroke-width="1.5"></path><path d="M531.28 404.45L531.28 404.45" stroke="#132e65" stroke-width="1.5"></path><path d="M531.28 404.45L516.84 556.46" stroke="#132e65" stroke-width="1.5"></path><path d="M516.84 556.46L516.84 556.46" stroke="#132e65" stroke-width="1.5"></path><path d="M516.84 556.46L554.99 643.34" stroke="#132e65" stroke-width="1.5"></path><path d="M516.84 556.46L701.03 521.48" stroke="#132e65" stroke-width="1.5"></path><path d="M554.99 643.34L554.99 643.34" stroke="#132e65" stroke-width="1.5"></path><path d="M554.99 643.34L678.4 667.93" stroke="#132e65" stroke-width="1.5"></path><path d="M554.99 643.34L701.03 521.48" stroke="#132e65" stroke-width="1.5"></path><path d="M670.27 226.35L670.27 226.35" stroke="#132e65" stroke-width="1.5"></path><path d="M670.27 226.35L690.1 342.08" stroke="#132e65" stroke-width="1.5"></path><path d="M690.1 342.08L690.1 342.08" stroke="#132e65" stroke-width="1.5"></path><path d="M690.1 342.08L793.99 404.62" stroke="#132e65" stroke-width="1.5"></path><path d="M690.1 342.08L788.22 262.44" stroke="#132e65" stroke-width="1.5"></path><path d="M690.1 342.08L531.28 404.45" stroke="#132e65" stroke-width="1.5"></path><path d="M701.03 521.48L701.03 521.48" stroke="#132e65" stroke-width="1.5"></path><path d="M701.03 521.48L678.4 667.93" stroke="#132e65" stroke-width="1.5"></path><path d="M701.03 521.48L793.99 404.62" stroke="#132e65" stroke-width="1.5"></path><path d="M701.03 521.48L858.14 560.02" stroke="#132e65" stroke-width="1.5"></path><path d="M678.4 667.93L678.4 667.93" stroke="#132e65" stroke-width="1.5"></path><path d="M678.4 667.93L797.02 701.49" stroke="#132e65" stroke-width="1.5"></path><path d="M678.4 667.93L516.84 556.46" stroke="#132e65" stroke-width="1.5"></path><path d="M678.4 667.93L858.14 560.02" stroke="#132e65" stroke-width="1.5"></path><path d="M678.4 667.93L940.95 684.62" stroke="#132e65" stroke-width="1.5"></path><path d="M788.22 262.44L788.22 262.44" stroke="#132e65" stroke-width="1.5"></path><path d="M788.22 262.44L670.27 226.35" stroke="#132e65" stroke-width="1.5"></path><path d="M788.22 262.44L793.99 404.62" stroke="#132e65" stroke-width="1.5"></path><path d="M788.22 262.44L940.29 97.96" stroke="#132e65" stroke-width="1.5"></path><path d="M788.22 262.44L1001.38 191" stroke="#132e65" stroke-width="1.5"></path><path d="M788.22 262.44L987.87 400.72" stroke="#132e65" stroke-width="1.5"></path><path d="M793.99 404.62L793.99 404.62" stroke="#132e65" stroke-width="1.5"></path><path d="M858.14 560.02L858.14 560.02" stroke="#132e65" stroke-width="1.5"></path><path d="M858.14 560.02L948.2 495.6" stroke="#132e65" stroke-width="1.5"></path><path d="M858.14 560.02L940.95 684.62" stroke="#132e65" stroke-width="1.5"></path><path d="M858.14 560.02L797.02 701.49" stroke="#132e65" stroke-width="1.5"></path><path d="M797.02 701.49L797.02 701.49" stroke="#132e65" stroke-width="1.5"></path><path d="M797.02 701.49L940.95 684.62" stroke="#132e65" stroke-width="1.5"></path><path d="M963.68 -59.74L963.68 -59.74" stroke="#132e65" stroke-width="1.5"></path><path d="M963.68 -59.74L940.29 97.96" stroke="#132e65" stroke-width="1.5"></path><path d="M963.68 -59.74L1144.11 110.5" stroke="#132e65" stroke-width="1.5"></path><path d="M963.68 -59.74L1001.38 191" stroke="#132e65" stroke-width="1.5"></path><path d="M963.68 -59.74L1260.17 -53.97" stroke="#132e65" stroke-width="1.5"></path><path d="M963.68 -59.74L1090.83 214.56" stroke="#132e65" stroke-width="1.5"></path><path d="M963.68 -59.74L1302.1 51.98" stroke="#132e65" stroke-width="1.5"></path><path d="M940.29 97.96L940.29 97.96" stroke="#132e65" stroke-width="1.5"></path><path d="M940.29 97.96L1001.38 191" stroke="#132e65" stroke-width="1.5"></path><path d="M940.29 97.96L1090.83 214.56" stroke="#132e65" stroke-width="1.5"></path><path d="M940.29 97.96L1144.11 110.5" stroke="#132e65" stroke-width="1.5"></path><path d="M1001.38 191L1001.38 191" stroke="#132e65" stroke-width="1.5"></path><path d="M1001.38 191L1090.83 214.56" stroke="#132e65" stroke-width="1.5"></path><path d="M1001.38 191L1144.11 110.5" stroke="#132e65" stroke-width="1.5"></path><path d="M1001.38 191L987.87 400.72" stroke="#132e65" stroke-width="1.5"></path><path d="M987.87 400.72L987.87 400.72" stroke="#132e65" stroke-width="1.5"></path><path d="M987.87 400.72L948.2 495.6" stroke="#132e65" stroke-width="1.5"></path><path d="M987.87 400.72L793.99 404.62" stroke="#132e65" stroke-width="1.5"></path><path d="M948.2 495.6L948.2 495.6" stroke="#132e65" stroke-width="1.5"></path><path d="M948.2 495.6L793.99 404.62" stroke="#132e65" stroke-width="1.5"></path><path d="M948.2 495.6L940.95 684.62" stroke="#132e65" stroke-width="1.5"></path><path d="M948.2 495.6L701.03 521.48" stroke="#132e65" stroke-width="1.5"></path><path d="M948.2 495.6L797.02 701.49" stroke="#132e65" stroke-width="1.5"></path><path d="M940.95 684.62L940.95 684.62" stroke="#132e65" stroke-width="1.5"></path><path d="M940.95 684.62L1153.03 694.79" stroke="#132e65" stroke-width="1.5"></path><path d="M940.95 684.62L987.87 400.72" stroke="#132e65" stroke-width="1.5"></path><path d="M1144.11 110.5L1144.11 110.5" stroke="#132e65" stroke-width="1.5"></path><path d="M1144.11 110.5L1090.83 214.56" stroke="#132e65" stroke-width="1.5"></path><path d="M1144.11 110.5L1302.1 51.98" stroke="#132e65" stroke-width="1.5"></path><path d="M1144.11 110.5L1260.17 -53.97" stroke="#132e65" stroke-width="1.5"></path><path d="M1090.83 214.56L1090.83 214.56" stroke="#132e65" stroke-width="1.5"></path><path d="M1153.03 694.79L1153.03 694.79" stroke="#132e65" stroke-width="1.5"></path><path d="M1153.03 694.79L1311.5 707.53" stroke="#132e65" stroke-width="1.5"></path><path d="M1260.17 -53.97L1260.17 -53.97" stroke="#132e65" stroke-width="1.5"></path><path d="M1260.17 -53.97L1302.1 51.98" stroke="#132e65" stroke-width="1.5"></path><path d="M1260.17 -53.97L1439.97 -108.64" stroke="#132e65" stroke-width="1.5"></path><path d="M1260.17 -53.97L1547.37 -57.77" stroke="#132e65" stroke-width="1.5"></path><path d="M1260.17 -53.97L1424.86 207.38" stroke="#132e65" stroke-width="1.5"></path><path d="M1302.1 51.98L1302.1 51.98" stroke="#132e65" stroke-width="1.5"></path><path d="M1302.1 51.98L1424.86 207.38" stroke="#132e65" stroke-width="1.5"></path><path d="M1302.1 51.98L1304.88 260.53" stroke="#132e65" stroke-width="1.5"></path><path d="M1302.1 51.98L1439.97 -108.64" stroke="#132e65" stroke-width="1.5"></path><path d="M1304.88 260.53L1304.88 260.53" stroke="#132e65" stroke-width="1.5"></path><path d="M1304.88 260.53L1296.85 365.66" stroke="#132e65" stroke-width="1.5"></path><path d="M1304.88 260.53L1424.86 207.38" stroke="#132e65" stroke-width="1.5"></path><path d="M1304.88 260.53L1393.82 404.05" stroke="#132e65" stroke-width="1.5"></path><path d="M1304.88 260.53L1090.83 214.56" stroke="#132e65" stroke-width="1.5"></path><path d="M1304.88 260.53L1144.11 110.5" stroke="#132e65" stroke-width="1.5"></path><path d="M1296.85 365.66L1296.85 365.66" stroke="#132e65" stroke-width="1.5"></path><path d="M1296.85 365.66L1393.82 404.05" stroke="#132e65" stroke-width="1.5"></path><path d="M1296.85 365.66L1277.29 516.99" stroke="#132e65" stroke-width="1.5"></path><path d="M1296.85 365.66L1422.35 525.79" stroke="#132e65" stroke-width="1.5"></path><path d="M1296.85 365.66L1424.86 207.38" stroke="#132e65" stroke-width="1.5"></path><path d="M1277.29 516.99L1277.29 516.99" stroke="#132e65" stroke-width="1.5"></path><path d="M1277.29 516.99L1422.35 525.79" stroke="#132e65" stroke-width="1.5"></path><path d="M1311.5 707.53L1311.5 707.53" stroke="#132e65" stroke-width="1.5"></path><path d="M1311.5 707.53L1422.15 656.84" stroke="#132e65" stroke-width="1.5"></path><path d="M1311.5 707.53L1277.29 516.99" stroke="#132e65" stroke-width="1.5"></path><path d="M1439.97 -108.64L1439.97 -108.64" stroke="#132e65" stroke-width="1.5"></path><path d="M1439.97 -108.64L1547.37 -57.77" stroke="#132e65" stroke-width="1.5"></path><path d="M1439.97 -108.64L1548.36 78.65" stroke="#132e65" stroke-width="1.5"></path><path d="M1424.86 207.38L1424.86 207.38" stroke="#132e65" stroke-width="1.5"></path><path d="M1424.86 207.38L1551.54 222.86" stroke="#132e65" stroke-width="1.5"></path><path d="M1424.86 207.38L1548.36 78.65" stroke="#132e65" stroke-width="1.5"></path><path d="M1393.82 404.05L1393.82 404.05" stroke="#132e65" stroke-width="1.5"></path><path d="M1393.82 404.05L1422.35 525.79" stroke="#132e65" stroke-width="1.5"></path><path d="M1393.82 404.05L1553.53 385.17" stroke="#132e65" stroke-width="1.5"></path><path d="M1393.82 404.05L1277.29 516.99" stroke="#132e65" stroke-width="1.5"></path><path d="M1393.82 404.05L1424.86 207.38" stroke="#132e65" stroke-width="1.5"></path><path d="M1422.35 525.79L1422.35 525.79" stroke="#132e65" stroke-width="1.5"></path><path d="M1422.35 525.79L1422.15 656.84" stroke="#132e65" stroke-width="1.5"></path><path d="M1422.15 656.84L1422.15 656.84" stroke="#132e65" stroke-width="1.5"></path><path d="M1422.15 656.84L1568 669.41" stroke="#132e65" stroke-width="1.5"></path><path d="M1547.37 -57.77L1547.37 -57.77" stroke="#132e65" stroke-width="1.5"></path><path d="M1547.37 -57.77L1548.36 78.65" stroke="#132e65" stroke-width="1.5"></path><path d="M1547.37 -57.77L1302.1 51.98" stroke="#132e65" stroke-width="1.5"></path><path d="M1547.37 -57.77L1551.54 222.86" stroke="#132e65" stroke-width="1.5"></path><path d="M1547.37 -57.77L1424.86 207.38" stroke="#132e65" stroke-width="1.5"></path><path d="M1548.36 78.65L1548.36 78.65" stroke="#132e65" stroke-width="1.5"></path><path d="M1548.36 78.65L1551.54 222.86" stroke="#132e65" stroke-width="1.5"></path><path d="M1551.54 222.86L1551.54 222.86" stroke="#132e65" stroke-width="1.5"></path><path d="M1551.54 222.86L1553.53 385.17" stroke="#132e65" stroke-width="1.5"></path><path d="M1553.53 385.17L1553.53 385.17" stroke="#132e65" stroke-width="1.5"></path><path d="M1553.53 385.17L1579.13 519.61" stroke="#132e65" stroke-width="1.5"></path><path d="M1553.53 385.17L1422.35 525.79" stroke="#132e65" stroke-width="1.5"></path><path d="M1553.53 385.17L1424.86 207.38" stroke="#132e65" stroke-width="1.5"></path><path d="M1553.53 385.17L1296.85 365.66" stroke="#132e65" stroke-width="1.5"></path><path d="M1579.13 519.61L1579.13 519.61" stroke="#132e65" stroke-width="1.5"></path><path d="M1579.13 519.61L1568 669.41" stroke="#132e65" stroke-width="1.5"></path><path d="M1579.13 519.61L1422.35 525.79" stroke="#132e65" stroke-width="1.5"></path><path d="M1568 669.41L1568 669.41" stroke="#132e65" stroke-width="1.5"></path><path d="M1568 669.41L1422.35 525.79" stroke="#132e65" stroke-width="1.5"></path><path d="M1568 669.41L1311.5 707.53" stroke="#132e65" stroke-width="1.5"></path><path d="M1568 669.41L1553.53 385.17" stroke="#132e65" stroke-width="1.5"></path><path d="M1568 669.41L1393.82 404.05" stroke="#132e65" stroke-width="1.5"></path><circle r="5" cx="-53.19" cy="344.79" fill="#132e65"></circle><circle r="5" cx="-48.16" cy="524.02" fill="#132e65"></circle><circle r="5" cx="-110.8" cy="640.65" fill="#132e65"></circle><circle r="5" cx="56.48" cy="389.47" fill="#132e65"></circle><circle r="5" cx="97.51" cy="519.04" fill="#132e65"></circle><circle r="5" cx="65.63" cy="673.7" fill="#132e65"></circle><circle r="5" cx="215.3" cy="397.74" fill="#132e65"></circle><circle r="5" cx="208.48" cy="494.32" fill="#132e65"></circle><circle r="5" cx="241.15" cy="659.14" fill="#132e65"></circle><circle r="5" cx="352.22" cy="352.09" fill="#132e65"></circle><circle r="5" cx="378.07" cy="560.8" fill="#132e65"></circle><circle r="5" cx="366.15" cy="646.75" fill="#132e65"></circle><circle r="5" cx="531.28" cy="404.45" fill="#132e65"></circle><circle r="5" cx="516.84" cy="556.46" fill="#132e65"></circle><circle r="5" cx="554.99" cy="643.34" fill="#132e65"></circle><circle r="5" cx="670.27" cy="226.35" fill="#132e65"></circle><circle r="5" cx="690.1" cy="342.08" fill="#132e65"></circle><circle r="5" cx="701.03" cy="521.48" fill="#132e65"></circle><circle r="5" cx="678.4" cy="667.93" fill="#132e65"></circle><circle r="5" cx="788.22" cy="262.44" fill="#132e65"></circle><circle r="5" cx="793.99" cy="404.62" fill="#132e65"></circle><circle r="5" cx="858.14" cy="560.02" fill="#132e65"></circle><circle r="5" cx="797.02" cy="701.49" fill="#132e65"></circle><circle r="5" cx="963.68" cy="-59.74" fill="#132e65"></circle><circle r="5" cx="940.29" cy="97.96" fill="#132e65"></circle><circle r="5" cx="1001.38" cy="191" fill="#132e65"></circle><circle r="5" cx="987.87" cy="400.72" fill="#132e65"></circle><circle r="5" cx="948.2" cy="495.6" fill="#132e65"></circle><circle r="5" cx="940.95" cy="684.62" fill="#132e65"></circle><circle r="5" cx="1144.11" cy="110.5" fill="#132e65"></circle><circle r="5" cx="1090.83" cy="214.56" fill="#132e65"></circle><circle r="5" cx="1153.03" cy="694.79" fill="#132e65"></circle><circle r="5" cx="1260.17" cy="-53.97" fill="#132e65"></circle><circle r="5" cx="1302.1" cy="51.98" fill="#132e65"></circle><circle r="5" cx="1304.88" cy="260.53" fill="#132e65"></circle><circle r="5" cx="1296.85" cy="365.66" fill="#132e65"></circle><circle r="5" cx="1277.29" cy="516.99" fill="#132e65"></circle><circle r="5" cx="1311.5" cy="707.53" fill="#132e65"></circle><circle r="5" cx="1439.97" cy="-108.64" fill="#132e65"></circle><circle r="5" cx="1424.86" cy="207.38" fill="#132e65"></circle><circle r="5" cx="1393.82" cy="404.05" fill="#132e65"></circle><circle r="5" cx="1422.35" cy="525.79" fill="#132e65"></circle><circle r="5" cx="1422.15" cy="656.84" fill="#132e65"></circle><circle r="5" cx="1547.37" cy="-57.77" fill="#132e65"></circle><circle r="5" cx="1548.36" cy="78.65" fill="#132e65"></circle><circle r="5" cx="1551.54" cy="222.86" fill="#132e65"></circle><circle r="5" cx="1553.53" cy="385.17" fill="#132e65"></circle><circle r="5" cx="1579.13" cy="519.61" fill="#132e65"></circle><circle r="5" cx="1568" cy="669.41" fill="#132e65"></circle><path d="M-80.12 542.71L-80.12 542.71" stroke="hsl(228.5, 77.2%, 51.5%)" stroke-width="1.5"></path><path d="M-80.12 542.71L-42.89 682.54" stroke="hsl(228.5, 77.2%, 51.5%)" stroke-width="1.5"></path><path d="M-80.12 542.71L70.22 561.91" stroke="hsl(228.5, 77.2%, 51.5%)" stroke-width="1.5"></path><path d="M-80.12 542.71L87.1 657.88" stroke="hsl(228.5, 77.2%, 51.5%)" stroke-width="1.5"></path><path d="M-80.12 542.71L247.9 642.78" stroke="hsl(228.5, 77.2%, 51.5%)" stroke-width="1.5"></path><path d="M-80.12 542.71L366.16 685.14" stroke="hsl(228.5, 77.2%, 51.5%)" stroke-width="1.5"></path><path d="M-80.12 542.71L410.51 541.91" stroke="hsl(228.5, 77.2%, 51.5%)" stroke-width="1.5"></path><path d="M247.9 642.78L247.9 642.78" stroke="hsl(228.5, 77.2%, 51.5%)" stroke-width="1.5"></path><path d="M247.9 642.78L366.16 685.14" stroke="hsl(228.5, 77.2%, 51.5%)" stroke-width="1.5"></path><path d="M247.9 642.78L87.1 657.88" stroke="hsl(228.5, 77.2%, 51.5%)" stroke-width="1.5"></path><path d="M247.9 642.78L410.51 541.91" stroke="hsl(228.5, 77.2%, 51.5%)" stroke-width="1.5"></path><path d="M788.42 502.65L788.42 502.65" stroke="hsl(228.5, 77.2%, 51.5%)" stroke-width="1.5"></path><path d="M788.42 502.65L836.5 363.67" stroke="hsl(228.5, 77.2%, 51.5%)" stroke-width="1.5"></path><path d="M788.42 502.65L640.4 532.51" stroke="hsl(228.5, 77.2%, 51.5%)" stroke-width="1.5"></path><path d="M788.42 502.65L992.23 513.28" stroke="hsl(228.5, 77.2%, 51.5%)" stroke-width="1.5"></path><path d="M788.42 502.65L956.29 363.65" stroke="hsl(228.5, 77.2%, 51.5%)" stroke-width="1.5"></path><path d="M788.42 502.65L858.13 710.98" stroke="hsl(228.5, 77.2%, 51.5%)" stroke-width="1.5"></path><path d="M788.42 502.65L560.5 509.39" stroke="hsl(228.5, 77.2%, 51.5%)" stroke-width="1.5"></path><path d="M956.29 363.65L956.29 363.65" stroke="hsl(228.5, 77.2%, 51.5%)" stroke-width="1.5"></path><path d="M956.29 363.65L836.5 363.67" stroke="hsl(228.5, 77.2%, 51.5%)" stroke-width="1.5"></path><path d="M956.29 363.65L999.12 241.66" stroke="hsl(228.5, 77.2%, 51.5%)" stroke-width="1.5"></path><path d="M956.29 363.65L992.23 513.28" stroke="hsl(228.5, 77.2%, 51.5%)" stroke-width="1.5"></path><path d="M956.29 363.65L1089.79 521.37" stroke="hsl(228.5, 77.2%, 51.5%)" stroke-width="1.5"></path><path d="M959.7 671.3L959.7 671.3" stroke="hsl(228.5, 77.2%, 51.5%)" stroke-width="1.5"></path><path d="M959.7 671.3L858.13 710.98" stroke="hsl(228.5, 77.2%, 51.5%)" stroke-width="1.5"></path><path d="M959.7 671.3L1118.65 698.15" stroke="hsl(228.5, 77.2%, 51.5%)" stroke-width="1.5"></path><path d="M959.7 671.3L992.23 513.28" stroke="hsl(228.5, 77.2%, 51.5%)" stroke-width="1.5"></path><path d="M959.7 671.3L1089.79 521.37" stroke="hsl(228.5, 77.2%, 51.5%)" stroke-width="1.5"></path><path d="M959.7 671.3L788.42 502.65" stroke="hsl(228.5, 77.2%, 51.5%)" stroke-width="1.5"></path><path d="M959.7 671.3L956.29 363.65" stroke="hsl(228.5, 77.2%, 51.5%)" stroke-width="1.5"></path><path d="M1267.77 251.25L1267.77 251.25" stroke="hsl(228.5, 77.2%, 51.5%)" stroke-width="1.5"></path><path d="M1267.77 251.25L1266.03 374.86" stroke="hsl(228.5, 77.2%, 51.5%)" stroke-width="1.5"></path><path d="M1267.77 251.25L1162.15 339.66" stroke="hsl(228.5, 77.2%, 51.5%)" stroke-width="1.5"></path><path d="M1267.77 251.25L1260.03 98.53" stroke="hsl(228.5, 77.2%, 51.5%)" stroke-width="1.5"></path><path d="M1267.77 251.25L1424.35 235.65" stroke="hsl(228.5, 77.2%, 51.5%)" stroke-width="1.5"></path><path d="M1267.77 251.25L1433.8 346.38" stroke="hsl(228.5, 77.2%, 51.5%)" stroke-width="1.5"></path><path d="M1419.68 517.74L1419.68 517.74" stroke="hsl(228.5, 77.2%, 51.5%)" stroke-width="1.5"></path><path d="M1419.68 517.74L1392.25 674.57" stroke="hsl(228.5, 77.2%, 51.5%)" stroke-width="1.5"></path><path d="M1419.68 517.74L1433.8 346.38" stroke="hsl(228.5, 77.2%, 51.5%)" stroke-width="1.5"></path><path d="M1419.68 517.74L1266.03 374.86" stroke="hsl(228.5, 77.2%, 51.5%)" stroke-width="1.5"></path><path d="M1419.68 517.74L1603.93 661.4" stroke="hsl(228.5, 77.2%, 51.5%)" stroke-width="1.5"></path><path d="M1419.68 517.74L1268.63 701.01" stroke="hsl(228.5, 77.2%, 51.5%)" stroke-width="1.5"></path><path d="M1602.02 -95.15L1602.02 -95.15" stroke="hsl(228.5, 77.2%, 51.5%)" stroke-width="1.5"></path><path d="M1602.02 -95.15L1437.65 -112.43" stroke="hsl(228.5, 77.2%, 51.5%)" stroke-width="1.5"></path><path d="M1602.02 -95.15L1458.05 111.11" stroke="hsl(228.5, 77.2%, 51.5%)" stroke-width="1.5"></path><path d="M1602.02 -95.15L1296.29 -102.06" stroke="hsl(228.5, 77.2%, 51.5%)" stroke-width="1.5"></path><path d="M1602.02 -95.15L1579.57 234.9" stroke="hsl(228.5, 77.2%, 51.5%)" stroke-width="1.5"></path><path d="M1602.02 -95.15L1424.35 235.65" stroke="hsl(228.5, 77.2%, 51.5%)" stroke-width="1.5"></path><path d="M1602.02 -95.15L1260.03 98.53" stroke="hsl(228.5, 77.2%, 51.5%)" stroke-width="1.5"></path><path d="M1579.57 234.9L1579.57 234.9" stroke="hsl(228.5, 77.2%, 51.5%)" stroke-width="1.5"></path><path d="M1579.57 234.9L1604.64 343.75" stroke="hsl(228.5, 77.2%, 51.5%)" stroke-width="1.5"></path><path d="M1579.57 234.9L1424.35 235.65" stroke="hsl(228.5, 77.2%, 51.5%)" stroke-width="1.5"></path><path d="M-42.89 682.54L-42.89 682.54" stroke="hsl(228.5, 77.2%, 51.5%)" stroke-width="1.5"></path><path d="M-42.89 682.54L87.1 657.88" stroke="hsl(228.5, 77.2%, 51.5%)" stroke-width="1.5"></path><path d="M-42.89 682.54L70.22 561.91" stroke="hsl(228.5, 77.2%, 51.5%)" stroke-width="1.5"></path><path d="M-42.89 682.54L247.9 642.78" stroke="hsl(228.5, 77.2%, 51.5%)" stroke-width="1.5"></path><path d="M-42.89 682.54L366.16 685.14" stroke="hsl(228.5, 77.2%, 51.5%)" stroke-width="1.5"></path><path d="M-42.89 682.54L410.51 541.91" stroke="hsl(228.5, 77.2%, 51.5%)" stroke-width="1.5"></path><path d="M70.22 561.91L70.22 561.91" stroke="hsl(228.5, 77.2%, 51.5%)" stroke-width="1.5"></path><path d="M70.22 561.91L87.1 657.88" stroke="hsl(228.5, 77.2%, 51.5%)" stroke-width="1.5"></path><path d="M70.22 561.91L247.9 642.78" stroke="hsl(228.5, 77.2%, 51.5%)" stroke-width="1.5"></path><path d="M87.1 657.88L87.1 657.88" stroke="hsl(228.5, 77.2%, 51.5%)" stroke-width="1.5"></path><path d="M410.51 541.91L410.51 541.91" stroke="hsl(228.5, 77.2%, 51.5%)" stroke-width="1.5"></path><path d="M410.51 541.91L366.16 685.14" stroke="hsl(228.5, 77.2%, 51.5%)" stroke-width="1.5"></path><path d="M410.51 541.91L560.5 509.39" stroke="hsl(228.5, 77.2%, 51.5%)" stroke-width="1.5"></path><path d="M410.51 541.91L640.4 532.51" stroke="hsl(228.5, 77.2%, 51.5%)" stroke-width="1.5"></path><path d="M410.51 541.91L648.39 701.15" stroke="hsl(228.5, 77.2%, 51.5%)" stroke-width="1.5"></path><path d="M366.16 685.14L366.16 685.14" stroke="hsl(228.5, 77.2%, 51.5%)" stroke-width="1.5"></path><path d="M560.5 509.39L560.5 509.39" stroke="hsl(228.5, 77.2%, 51.5%)" stroke-width="1.5"></path><path d="M560.5 509.39L640.4 532.51" stroke="hsl(228.5, 77.2%, 51.5%)" stroke-width="1.5"></path><path d="M560.5 509.39L648.39 701.15" stroke="hsl(228.5, 77.2%, 51.5%)" stroke-width="1.5"></path><path d="M560.5 509.39L366.16 685.14" stroke="hsl(228.5, 77.2%, 51.5%)" stroke-width="1.5"></path><path d="M560.5 509.39L836.5 363.67" stroke="hsl(228.5, 77.2%, 51.5%)" stroke-width="1.5"></path><path d="M640.4 532.51L640.4 532.51" stroke="hsl(228.5, 77.2%, 51.5%)" stroke-width="1.5"></path><path d="M648.39 701.15L648.39 701.15" stroke="hsl(228.5, 77.2%, 51.5%)" stroke-width="1.5"></path><path d="M648.39 701.15L640.4 532.51" stroke="hsl(228.5, 77.2%, 51.5%)" stroke-width="1.5"></path><path d="M648.39 701.15L858.13 710.98" stroke="hsl(228.5, 77.2%, 51.5%)" stroke-width="1.5"></path><path d="M648.39 701.15L788.42 502.65" stroke="hsl(228.5, 77.2%, 51.5%)" stroke-width="1.5"></path><path d="M648.39 701.15L366.16 685.14" stroke="hsl(228.5, 77.2%, 51.5%)" stroke-width="1.5"></path><path d="M836.5 363.67L836.5 363.67" stroke="hsl(228.5, 77.2%, 51.5%)" stroke-width="1.5"></path><path d="M836.5 363.67L999.12 241.66" stroke="hsl(228.5, 77.2%, 51.5%)" stroke-width="1.5"></path><path d="M836.5 363.67L992.23 513.28" stroke="hsl(228.5, 77.2%, 51.5%)" stroke-width="1.5"></path><path d="M836.5 363.67L640.4 532.51" stroke="hsl(228.5, 77.2%, 51.5%)" stroke-width="1.5"></path><path d="M858.13 710.98L858.13 710.98" stroke="hsl(228.5, 77.2%, 51.5%)" stroke-width="1.5"></path><path d="M999.12 241.66L999.12 241.66" stroke="hsl(228.5, 77.2%, 51.5%)" stroke-width="1.5"></path><path d="M992.23 513.28L992.23 513.28" stroke="hsl(228.5, 77.2%, 51.5%)" stroke-width="1.5"></path><path d="M992.23 513.28L1089.79 521.37" stroke="hsl(228.5, 77.2%, 51.5%)" stroke-width="1.5"></path><path d="M1162.15 339.66L1162.15 339.66" stroke="hsl(228.5, 77.2%, 51.5%)" stroke-width="1.5"></path><path d="M1162.15 339.66L1266.03 374.86" stroke="hsl(228.5, 77.2%, 51.5%)" stroke-width="1.5"></path><path d="M1162.15 339.66L999.12 241.66" stroke="hsl(228.5, 77.2%, 51.5%)" stroke-width="1.5"></path><path d="M1162.15 339.66L1089.79 521.37" stroke="hsl(228.5, 77.2%, 51.5%)" stroke-width="1.5"></path><path d="M1162.15 339.66L956.29 363.65" stroke="hsl(228.5, 77.2%, 51.5%)" stroke-width="1.5"></path><path d="M1089.79 521.37L1089.79 521.37" stroke="hsl(228.5, 77.2%, 51.5%)" stroke-width="1.5"></path><path d="M1089.79 521.37L1118.65 698.15" stroke="hsl(228.5, 77.2%, 51.5%)" stroke-width="1.5"></path><path d="M1118.65 698.15L1118.65 698.15" stroke="hsl(228.5, 77.2%, 51.5%)" stroke-width="1.5"></path><path d="M1118.65 698.15L1268.63 701.01" stroke="hsl(228.5, 77.2%, 51.5%)" stroke-width="1.5"></path><path d="M1118.65 698.15L992.23 513.28" stroke="hsl(228.5, 77.2%, 51.5%)" stroke-width="1.5"></path><path d="M1296.29 -102.06L1296.29 -102.06" stroke="hsl(228.5, 77.2%, 51.5%)" stroke-width="1.5"></path><path d="M1296.29 -102.06L1437.65 -112.43" stroke="hsl(228.5, 77.2%, 51.5%)" stroke-width="1.5"></path><path d="M1296.29 -102.06L1260.03 98.53" stroke="hsl(228.5, 77.2%, 51.5%)" stroke-width="1.5"></path><path d="M1260.03 98.53L1260.03 98.53" stroke="hsl(228.5, 77.2%, 51.5%)" stroke-width="1.5"></path><path d="M1266.03 374.86L1266.03 374.86" stroke="hsl(228.5, 77.2%, 51.5%)" stroke-width="1.5"></path><path d="M1266.03 374.86L1433.8 346.38" stroke="hsl(228.5, 77.2%, 51.5%)" stroke-width="1.5"></path><path d="M1266.03 374.86L1424.35 235.65" stroke="hsl(228.5, 77.2%, 51.5%)" stroke-width="1.5"></path><path d="M1266.03 374.86L1089.79 521.37" stroke="hsl(228.5, 77.2%, 51.5%)" stroke-width="1.5"></path><path d="M1268.63 701.01L1268.63 701.01" stroke="hsl(228.5, 77.2%, 51.5%)" stroke-width="1.5"></path><path d="M1268.63 701.01L1392.25 674.57" stroke="hsl(228.5, 77.2%, 51.5%)" stroke-width="1.5"></path><path d="M1268.63 701.01L1089.79 521.37" stroke="hsl(228.5, 77.2%, 51.5%)" stroke-width="1.5"></path><path d="M1268.63 701.01L959.7 671.3" stroke="hsl(228.5, 77.2%, 51.5%)" stroke-width="1.5"></path><path d="M1268.63 701.01L1266.03 374.86" stroke="hsl(228.5, 77.2%, 51.5%)" stroke-width="1.5"></path><path d="M1437.65 -112.43L1437.65 -112.43" stroke="hsl(228.5, 77.2%, 51.5%)" stroke-width="1.5"></path><path d="M1437.65 -112.43L1458.05 111.11" stroke="hsl(228.5, 77.2%, 51.5%)" stroke-width="1.5"></path><path d="M1437.65 -112.43L1260.03 98.53" stroke="hsl(228.5, 77.2%, 51.5%)" stroke-width="1.5"></path><path d="M1437.65 -112.43L1424.35 235.65" stroke="hsl(228.5, 77.2%, 51.5%)" stroke-width="1.5"></path><path d="M1458.05 111.11L1458.05 111.11" stroke="hsl(228.5, 77.2%, 51.5%)" stroke-width="1.5"></path><path d="M1458.05 111.11L1424.35 235.65" stroke="hsl(228.5, 77.2%, 51.5%)" stroke-width="1.5"></path><path d="M1424.35 235.65L1424.35 235.65" stroke="hsl(228.5, 77.2%, 51.5%)" stroke-width="1.5"></path><path d="M1424.35 235.65L1433.8 346.38" stroke="hsl(228.5, 77.2%, 51.5%)" stroke-width="1.5"></path><path d="M1433.8 346.38L1433.8 346.38" stroke="hsl(228.5, 77.2%, 51.5%)" stroke-width="1.5"></path><path d="M1392.25 674.57L1392.25 674.57" stroke="hsl(228.5, 77.2%, 51.5%)" stroke-width="1.5"></path><path d="M1392.25 674.57L1603.93 661.4" stroke="hsl(228.5, 77.2%, 51.5%)" stroke-width="1.5"></path><path d="M1392.25 674.57L1118.65 698.15" stroke="hsl(228.5, 77.2%, 51.5%)" stroke-width="1.5"></path><path d="M1392.25 674.57L1266.03 374.86" stroke="hsl(228.5, 77.2%, 51.5%)" stroke-width="1.5"></path><path d="M1604.64 343.75L1604.64 343.75" stroke="hsl(228.5, 77.2%, 51.5%)" stroke-width="1.5"></path><path d="M1604.64 343.75L1433.8 346.38" stroke="hsl(228.5, 77.2%, 51.5%)" stroke-width="1.5"></path><path d="M1604.64 343.75L1424.35 235.65" stroke="hsl(228.5, 77.2%, 51.5%)" stroke-width="1.5"></path><path d="M1604.64 343.75L1419.68 517.74" stroke="hsl(228.5, 77.2%, 51.5%)" stroke-width="1.5"></path><path d="M1604.64 343.75L1458.05 111.11" stroke="hsl(228.5, 77.2%, 51.5%)" stroke-width="1.5"></path><path d="M1603.93 661.4L1603.93 661.4" stroke="hsl(228.5, 77.2%, 51.5%)" stroke-width="1.5"></path><path d="M1603.93 661.4L1604.64 343.75" stroke="hsl(228.5, 77.2%, 51.5%)" stroke-width="1.5"></path><circle r="25" cx="-80.12" cy="542.71" fill="url(&quot;#SvgjsRadialGradient1017&quot;)"></circle><circle r="25" cx="247.9" cy="642.78" fill="url(&quot;#SvgjsRadialGradient1017&quot;)"></circle><circle r="25" cx="788.42" cy="502.65" fill="url(&quot;#SvgjsRadialGradient1017&quot;)"></circle><circle r="25" cx="956.29" cy="363.65" fill="url(&quot;#SvgjsRadialGradient1017&quot;)"></circle><circle r="25" cx="959.7" cy="671.3" fill="url(&quot;#SvgjsRadialGradient1017&quot;)"></circle><circle r="25" cx="1267.77" cy="251.25" fill="url(&quot;#SvgjsRadialGradient1017&quot;)"></circle><circle r="25" cx="1419.68" cy="517.74" fill="url(&quot;#SvgjsRadialGradient1017&quot;)"></circle><circle r="25" cx="1602.02" cy="-95.15" fill="url(&quot;#SvgjsRadialGradient1017&quot;)"></circle><circle r="25" cx="1579.57" cy="234.9" fill="url(&quot;#SvgjsRadialGradient1017&quot;)"></circle><circle r="5" cx="-42.89" cy="682.54" fill="#8b9ad9"></circle><circle r="5" cx="70.22" cy="561.91" fill="#8b9ad9"></circle><circle r="5" cx="87.1" cy="657.88" fill="#8b9ad9"></circle><circle r="5" cx="410.51" cy="541.91" fill="#8b9ad9"></circle><circle r="5" cx="366.16" cy="685.14" fill="#8b9ad9"></circle><circle r="5" cx="560.5" cy="509.39" fill="#8b9ad9"></circle><circle r="5" cx="640.4" cy="532.51" fill="#8b9ad9"></circle><circle r="5" cx="648.39" cy="701.15" fill="#8b9ad9"></circle><circle r="5" cx="836.5" cy="363.67" fill="#8b9ad9"></circle><circle r="5" cx="858.13" cy="710.98" fill="#8b9ad9"></circle><circle r="5" cx="999.12" cy="241.66" fill="#8b9ad9"></circle><circle r="5" cx="992.23" cy="513.28" fill="#8b9ad9"></circle><circle r="5" cx="1162.15" cy="339.66" fill="#8b9ad9"></circle><circle r="5" cx="1089.79" cy="521.37" fill="#8b9ad9"></circle><circle r="5" cx="1118.65" cy="698.15" fill="#8b9ad9"></circle><circle r="5" cx="1296.29" cy="-102.06" fill="#8b9ad9"></circle><circle r="5" cx="1260.03" cy="98.53" fill="#8b9ad9"></circle><circle r="5" cx="1266.03" cy="374.86" fill="#8b9ad9"></circle><circle r="5" cx="1268.63" cy="701.01" fill="#8b9ad9"></circle><circle r="5" cx="1437.65" cy="-112.43" fill="#8b9ad9"></circle><circle r="5" cx="1458.05" cy="111.11" fill="#8b9ad9"></circle><circle r="5" cx="1424.35" cy="235.65" fill="#8b9ad9"></circle><circle r="5" cx="1433.8" cy="346.38" fill="#8b9ad9"></circle><circle r="5" cx="1392.25" cy="674.57" fill="#8b9ad9"></circle><circle r="5" cx="1604.64" cy="343.75" fill="#8b9ad9"></circle><circle r="5" cx="1603.93" cy="661.4" fill="#8b9ad9"></circle></g><defs><mask id="SvgjsMask1015"><rect width="1440" height="560" fill="#ffffff"></rect></mask><linearGradient x1="15.28%" y1="-39.29%" x2="84.72%" y2="139.29%" gradientUnits="userSpaceOnUse" id="SvgjsLinearGradient1016"><stop stop-color="#0e2a47" offset="0"></stop><stop stop-color="#00459e" offset="1"></stop></linearGradient><radialGradient id="SvgjsRadialGradient1017"><stop stop-color="#ffffff" offset="0.1"></stop><stop stop-color="#1735b3" offset="0.2"></stop><stop stop-color="rgba(23, 53, 179, 0)" offset="1"></stop></radialGradient></defs></svg>